Coordinates
version=1
nRows=13
nColumns=63
inDegrees=yes

Units are S.I. units (second, meters, Newtons, ...)
If the header above contains a line with 'inDegrees', this indicates whether rotational values are in degrees (yes) or radians (no).

endheader
time	pelvis_tilt	pelvis_list	pelvis_rotation	pelvis_tx	pelvis_ty	pelvis_tz	hip_flexion_r	hip_adduction_r	hip_rotation_r	knee_angle_r	knee_angle_r_beta	ankle_angle_r	subtalar_angle_r	mtp_angle_r	hip_flexion_l	hip_adduction_l	hip_rotation_l	knee_angle_l	knee_angle_l_beta	ankle_angle_l	subtalar_angle_l	mtp_angle_l	L5_S1_Flex_Ext	L5_S1_Lat_Bending	L5_S1_axial_rotation	L4_L5_Flex_Ext	L4_L5_Lat_Bending	L4_L5_axial_rotation	L3_L4_Flex_Ext	L3_L4_Lat_Bending	L3_L4_axial_rotation	L2_L3_Flex_Ext	L2_L3_Lat_Bending	L2_L3_axial_rotation	L1_L2_Flex_Ext	L1_L2_Lat_Bending	L1_L2_axial_rotation	L1_T12_Flex_Ext	L1_T12_Lat_Bending	L1_T12_axial_rotation	Abs_r3	Abs_r2	Abs_r1	Abs_t1	Abs_t2	neck_flexion	neck_bending	neck_rotation	arm_flex_r	arm_add_r	arm_rot_r	elbow_flex_r	pro_sup_r	wrist_flex_r	wrist_dev_r	arm_flex_l	arm_add_l	arm_rot_l	elbow_flex_l	pro_sup_l	wrist_flex_l	wrist_dev_l
0.813559	0.206623	-8.222256	96.189438	0.282999	0.855996	0.783418	12.439994	1.314175	-7.717699	14.839256	0.258994	35.502653	12.919470	0.000000	9.910478	-0.626835	-0.024365	9.265224	0.161709	31.680577	-0.272232	0.000000	0.362239	0.181567	0.221276	0.672714	0.241485	0.235106	0.595123	0.441463	0.235106	0.414003	0.441463	0.193616	0.336375	0.370252	0.179787	0.206983	0.281248	0.165957	2.587437	2.053927	1.230670	0.000000	0.000000	28.284857	-4.690776	-9.717342	4.574511	-14.049436	40.036737	60.936838	54.077253	4.675939	12.852475	6.353119	-8.011325	34.421344	62.706014	63.357547	4.146297	8.968123
0.830508	0.456319	-8.513673	96.324182	0.283429	0.856157	0.783381	12.566642	1.593855	-7.802290	14.352344	0.250496	35.158795	13.002295	0.000000	10.403877	-0.854810	0.116473	9.612947	0.167778	31.840076	-0.462504	0.000000	0.362029	0.188736	0.242701	0.672323	0.251018	0.257870	0.594777	0.458892	0.257870	0.413762	0.458892	0.212364	0.336180	0.384870	0.197195	0.206863	0.292352	0.182026	2.585934	2.135016	1.349832	0.000000	0.000000	28.278310	-5.006864	-10.162592	4.498631	-14.001430	40.270808	60.683273	54.693337	5.107644	13.240609	6.030187	-8.148311	34.175101	62.974196	64.261143	4.013672	8.565283
0.847458	0.686537	-8.807410	96.421290	0.283826	0.856242	0.783555	12.672085	1.853527	-7.873093	13.807489	0.240986	34.797758	13.117053	0.000000	10.894209	-1.053273	0.309063	9.940867	0.173501	31.935205	-0.793115	0.000000	0.360464	0.196331	0.252703	0.669418	0.261120	0.268497	0.592207	0.477358	0.268497	0.411974	0.477358	0.221115	0.334727	0.400357	0.205321	0.205969	0.304116	0.189527	2.574759	2.220931	1.405458	0.000000	0.000000	28.270205	-5.250670	-10.408978	4.625572	-13.988027	40.795095	60.377521	55.018975	5.582946	13.625632	5.606983	-8.305541	33.750578	63.325254	65.307993	3.937137	8.248935
0.864407	0.886806	-9.093368	96.449503	0.284233	0.856251	0.783973	12.762214	2.082285	-7.974256	13.239541	0.231074	34.447277	13.355908	0.000000	11.366453	-1.224781	0.438551	10.244080	0.178793	31.982548	-1.125082	0.000000	0.356876	0.204005	0.254036	0.662754	0.271326	0.269913	0.586311	0.496017	0.269913	0.407873	0.496017	0.222281	0.331395	0.416007	0.206404	0.203919	0.316003	0.190527	2.549128	2.307743	1.412871	0.000000	0.000000	28.260365	-5.368843	-10.389839	4.965579	-13.995574	41.600077	60.012178	54.970873	6.092637	13.956633	5.114463	-8.494550	33.193287	63.699703	66.294376	4.029737	7.908457
0.881356	1.062425	-9.362355	96.496102	0.284541	0.856199	0.784666	12.818380	2.278188	-8.065500	12.637654	0.220569	34.090217	13.548408	0.000000	11.822665	-1.365026	0.568303	10.527095	0.183732	31.974005	-1.407582	0.000000	0.351062	0.212093	0.231323	0.651958	0.282084	0.245781	0.576760	0.515683	0.245781	0.401229	0.515683	0.202408	0.325997	0.432500	0.187950	0.200597	0.328532	0.173493	2.507604	2.399239	1.286552	0.000000	0.000000	28.249893	-5.378614	-10.142071	5.522707	-14.028130	42.700702	59.608256	54.517509	6.542547	14.156495	4.570477	-8.708190	32.505741	64.083815	67.149199	4.301146	7.597469
0.898305	1.191571	-9.599783	96.484751	0.284829	0.856107	0.785578	12.840848	2.424788	-8.148852	12.039444	0.210128	33.750575	13.798875	0.000000	12.219022	-1.461579	0.682952	10.753414	0.187682	31.881210	-1.711873	0.000000	0.341768	0.219194	0.199552	0.634698	0.291528	0.212024	0.561491	0.532948	0.212024	0.390607	0.532948	0.174608	0.317366	0.446981	0.162136	0.195286	0.339532	0.149664	2.441216	2.479567	1.109848	0.000000	0.000000	28.239528	-5.235081	-9.598739	6.267319	-14.076513	44.029848	59.168878	53.640198	6.987272	14.279581	3.994243	-8.946060	31.720192	64.478373	67.819028	4.695367	7.348033
0.915254	1.287478	-9.822262	96.491056	0.285022	0.855959	0.786700	12.853747	2.524599	-8.267446	11.468271	0.200159	33.431474	14.061218	0.000000	12.591233	-1.523103	0.761599	10.945075	0.191028	31.743576	-1.916752	0.000000	0.332833	0.224555	0.157336	0.618104	0.298658	0.167169	0.546811	0.545983	0.167169	0.380394	0.545983	0.137669	0.309068	0.457912	0.127835	0.190181	0.347836	0.118002	2.377390	2.540210	0.875055	0.000000	0.000000	28.228977	-5.014882	-8.975099	7.121844	-14.151358	45.512870	58.732934	52.414894	7.336346	14.187314	3.430992	-9.198778	30.925293	64.853016	68.331256	5.164423	7.123592
0.932203	1.348368	-10.016378	96.505131	0.285133	0.855783	0.787942	12.846799	2.580422	-8.391457	10.938409	0.190911	33.131912	14.302507	0.000000	12.913380	-1.552489	0.753227	11.084996	0.193470	31.578976	-1.962346	0.000000	0.323354	0.228259	0.115715	0.600501	0.303584	0.122947	0.531238	0.554988	0.122947	0.369561	0.554988	0.101251	0.300266	0.465465	0.094019	0.184764	0.353572	0.086786	2.309685	2.582106	0.643573	0.000000	0.000000	28.218856	-4.724846	-8.259994	8.009627	-14.252002	47.029817	58.324019	51.003561	7.566325	13.894222	2.920622	-9.456397	30.202192	65.184260	68.646214	5.689559	6.926056
0.949153	1.385001	-10.190117	96.542887	0.285153	0.855578	0.789224	12.828720	2.600708	-8.519878	10.457951	0.182526	32.858881	14.522333	0.000000	13.193043	-1.556737	0.705891	11.171836	0.194985	31.391454	-1.901524	0.000000	0.316015	0.230922	0.074729	0.586872	0.307127	0.079400	0.519181	0.561465	0.079400	0.361174	0.561465	0.065388	0.293452	0.470897	0.060718	0.180571	0.357699	0.056047	2.257265	2.612239	0.415622	0.000000	0.000000	28.208423	-4.379107	-7.491418	8.906004	-14.398516	48.605885	57.946671	49.329152	7.697711	13.367019	2.474310	-9.704721	29.572722	65.447219	68.737333	6.290156	6.740704
0.966102	1.392742	-10.328795	96.598566	0.285108	0.855369	0.790467	12.794050	2.583953	-8.652427	10.054403	0.175482	32.623468	14.717791	0.000000	13.406436	-1.536754	0.579908	11.194743	0.195385	31.206783	-1.691169	0.000000	0.308609	0.231525	0.054072	0.573118	0.307928	0.057451	0.507014	0.562929	0.057451	0.352710	0.562929	0.047313	0.286575	0.472125	0.043933	0.176339	0.358632	0.040554	2.204365	2.619052	0.300731	0.000000	0.000000	28.197741	-4.106380	-6.834843	9.640382	-14.544302	49.855704	57.655289	48.098682	7.755781	12.716080	2.188319	-9.935797	29.236087	65.572381	68.610032	6.909307	6.439157
0.983051	1.379474	-10.436529	96.677688	0.285006	0.855155	0.791604	12.746068	2.535943	-8.817187	9.727168	0.169771	32.433640	14.930345	0.000000	13.557422	-1.498869	0.410661	11.154492	0.194683	31.034727	-1.378331	0.000000	0.302572	0.230592	0.050187	0.561907	0.306687	0.053323	0.497096	0.560661	0.053323	0.345810	0.560661	0.043913	0.280969	0.470223	0.040777	0.172890	0.357187	0.037640	2.161245	2.608500	0.279122	0.000000	0.000000	28.186332	-3.896249	-6.285023	10.193470	-14.680768	50.766059	57.453930	47.329873	7.786940	11.993905	2.058599	-10.136054	29.173491	65.548218	68.321197	7.546719	6.019887
1.000000	1.347243	-10.507949	96.774537	0.284899	0.854960	0.792573	12.676380	2.468597	-8.968435	9.465347	0.165201	32.280503	15.115277	0.000000	13.632766	-1.449947	0.193114	11.040849	0.192699	30.882850	-0.955462	0.000000	0.296998	0.227425	0.063472	0.551555	0.302475	0.067439	0.487938	0.552961	0.067439	0.339439	0.552961	0.055538	0.275793	0.463765	0.051571	0.169705	0.352281	0.047604	2.121428	2.572677	0.353010	0.000000	0.000000	28.173464	-3.781032	-5.917398	10.548828	-14.797964	51.347090	57.338606	46.858806	7.732161	11.180837	2.099518	-10.314639	29.410924	65.366917	67.820369	8.203985	5.484998
1.016949	1.312752	-10.551888	96.915747	0.284735	0.854767	0.793391	12.604826	2.391055	-9.131272	9.283419	0.162026	32.177612	15.254883	0.000000	13.666270	-1.397920	-0.008673	10.897309	0.190194	30.763323	-0.481716	0.000000	0.292526	0.224313	0.084865	0.543251	0.298336	0.090169	0.480591	0.545394	0.090169	0.334328	0.545394	0.074256	0.271640	0.457419	0.068952	0.167150	0.347461	0.063648	2.089486	2.537471	0.471991	0.000000	0.000000	28.161374	-3.790612	-5.724855	10.704639	-14.893327	51.532818	57.334377	46.782114	7.741359	10.485889	2.285472	-10.453177	29.891418	65.043959	67.232879	8.789557	4.810014
